<svg aria-hidden="true" style="width:0;height:0;position:absolute;overflow:hidden" xmlns="http://www.w3.org/2000/svg"><defs><symbol id="icon-button" viewBox="0 0 144 32"><path d="M0 0h143.628v31.598H0z"/><path d="M57.332 20.837c-.218 0-.402-.074-.551-.223s-.223-.333-.223-.551V9.987c0-.228.074-.412.223-.551a.749.749 0 0 1 .551-.223h3.557c.675 0 1.265.134 1.771.402.503.247.912.618 1.198 1.074l.007.012c.298.467.446 1.002.446 1.607 0 .486-.134.928-.402 1.325a2.718 2.718 0 0 1-1.072.923c.655.159 1.181.471 1.578.938s.595 1.077.595 1.831c0 .685-.164 1.29-.491 1.816a3.392 3.392 0 0 1-1.34 1.25c-.575.298-1.235.447-1.98.447h-3.87zm.774-1.429h3.096c.456 0 .858-.08 1.206-.238.34-.153.619-.393.814-.692l.004-.007c.199-.307.298-.69.298-1.146 0-.426-.099-.779-.298-1.057a1.808 1.808 0 0 0-.806-.621l-.012-.004a3.038 3.038 0 0 0-1.206-.223h-3.096v3.989zm0-5.417h2.783c.566 0 1.027-.139 1.384-.417.367-.278.551-.7.551-1.265s-.184-.982-.551-1.25c-.357-.278-.819-.417-1.384-.417h-2.783v3.349zm14.075 7.084c-.953 0-1.796-.173-2.53-.521-.734-.357-1.31-.848-1.727-1.474-.406-.625-.61-1.34-.61-2.143V9.986c0-.228.074-.412.223-.551a.749.749 0 0 1 .551-.223c.228 0 .412.074.551.223a.717.717 0 0 1 .223.551v6.951c0 .536.139 1.012.417 1.429.288.407.679.729 1.176.967.506.228 1.081.342 1.727.342.625 0 1.176-.114 1.652-.342.487-.238.863-.56 1.131-.967.278-.417.417-.893.417-1.429V9.986c0-.228.074-.412.223-.551a.749.749 0 0 1 .551-.223c.228 0 .412.074.551.223a.744.744 0 0 1 .208.551v6.951c0 .804-.203 1.518-.61 2.143-.397.625-.953 1.116-1.667 1.474-.714.348-1.533.521-2.456.521zm11.189-.238c-.208 0-.387-.074-.536-.223s-.223-.333-.223-.551v-3.468l-3.974-6.177c-.129-.208-.179-.402-.149-.58a.675.675 0 0 1 .252-.445l.001-.001a.789.789 0 0 1 .506-.179c.168 0 .302.039.402.119.099.069.194.173.283.313l3.78 5.998h-.595l3.84-6.058a.8.8 0 0 1 .283-.268.723.723 0 0 1 .377-.105h.026-.001c.179 0 .327.065.447.194a.74.74 0 0 1 .208.461.853.853 0 0 1-.149.551l-4.004 6.177v3.468c0 .218-.074.402-.223.551s-.333.223-.551.223z"/></symbol><symbol id="icon-logo" viewBox="0 0 140 32"><path d="M4.237 21.428 24.893 1.714v6.622c0 .382-.159.75-.443 1.021L8.02 25.037l-3.783-3.61zm6.32 6.032 14.336-13.682V20.4c0 .382-.159.75-.443 1.021l-6.328 6.038 5.028 4.798h-7.565l-5.028-4.798zm130.453-6.064 3.672 2.491c-1.75 2.184-4.417 3.571-7.407 3.571h-.031.002c-5.205 0-9.424-4.146-9.424-9.259s4.219-9.26 9.424-9.26a9.465 9.465 0 0 1 7.436 3.572l-3.672 2.49a4.899 4.899 0 0 0-3.764-1.768c-2.716 0-4.925 2.228-4.925 4.966s2.21 4.965 4.925 4.965a4.895 4.895 0 0 0 3.758-1.76l.006-.008zm-99.562-4.957h7.598l-1.452 4.074h-6.146v6.944h-4.436V8.94h14.705l-1.452 4.074h-8.818v3.426zm62.743-7.5h14.414v4.075h-4.989v14.444h-4.436V13.014h-4.989V8.941zm16.33 18.518h4.539V8.94h-4.539v18.517zm-26.619-6.96 2.245-6.716 2.245 6.716h-4.491zM93.32 8.939l-6.596 18.519h4.851l.962-2.887h7.223l.962 2.887h4.852L98.977 8.941h-5.655zm-12.805 0h4.436v18.519h-3.327L74.14 17.405v10.053h-4.435V8.94h3.326l7.484 10.052V8.94zM56.26 20.497l2.245-6.716 2.245 6.716h-4.491zM55.679 8.94l-6.597 18.518h4.851l.963-2.887h7.222l.963 2.887h4.851L61.335 8.94h-5.653z"/></symbol><symbol id="icon-play" viewBox="0 0 28 32"><path d="M27.533 16 .168 31.644V.356L27.533 16z"/></symbol><symbol id="icon-star" viewBox="0 0 32 32"><path d="m16.161 0 3.735 7.072 7.692-2.385-2.409 7.615L32.322 16l-7.143 3.698 2.409 7.615-7.692-2.385L16.161 32l-3.735-7.072-7.692 2.385 2.409-7.615L0 16l7.143-3.698-2.409-7.615 7.692 2.385L16.161 0z"/><path d="M10.028 18.709a1.75 1.75 0 0 1-.755-.156c-.22-.104-.394-.247-.524-.43s-.197-.392-.202-.627h.839c.009.159.076.287.2.386s.271.148.442.148c.136 0 .256-.03.36-.09s.188-.147.244-.251l.002-.003a.766.766 0 0 0 .09-.376.769.769 0 0 0-.092-.38.65.65 0 0 0-.247-.254l-.003-.002a.738.738 0 0 0-.366-.094.856.856 0 0 0-.355.076l.005-.002a.634.634 0 0 0-.262.202l-.769-.138.194-2.158h2.502v.708H9.542l-.106 1.025h.024c.072-.101.18-.185.326-.252s.308-.1.488-.1c.246 0 .466.058.659.174s.348.279.455.471l.003.006c.112.201.167.433.166.695.001.276-.063.521-.192.736a1.356 1.356 0 0 1-.538.504 1.689 1.689 0 0 1-.8.182zm3.613-4.205c.21 0 .413.035.608.106.205.076.38.191.523.337.154.155.276.36.366.616.091.254.137.567.138.937 0 .348-.039.658-.118.931-.077.272-.188.503-.334.694s-.32.336-.526.436a1.559 1.559 0 0 1-.687.148 1.59 1.59 0 0 1-.723-.158 1.329 1.329 0 0 1-.735-1.047l-.001-.006h.853a.583.583 0 0 0 .21.348.637.637 0 0 0 .396.122.668.668 0 0 0 .608-.348c.138-.233.208-.552.21-.957h-.028a.982.982 0 0 1-.246.308l-.002.001a1.13 1.13 0 0 1-.35.195l-.008.002c-.124.044-.268.07-.417.07h-.009c-.241 0-.456-.057-.645-.17s-.341-.273-.444-.461l-.003-.006a1.39 1.39 0 0 1-.164-.68 1.337 1.337 0 0 1 .726-1.237 1.67 1.67 0 0 1 .804-.182zm.006.68a.678.678 0 0 0-.606.35l-.002.004a.722.722 0 0 0-.088.362.7.7 0 0 0 .329.618l.003.002a.674.674 0 0 0 .356.094h.006c.194 0 .369-.08.493-.21a.738.738 0 0 0 .204-.502v-.004a.725.725 0 0 0-.094-.359l.002.004a.706.706 0 0 0-.245-.258l-.003-.002a.664.664 0 0 0-.356-.098zm3.834 3.559a1.548 1.548 0 0 1-.887-.254 1.603 1.603 0 0 1-.57-.73c-.132-.318-.197-.701-.196-1.149 0-.446.066-.827.198-1.141.133-.315.323-.554.57-.717.248-.165.543-.248.885-.248s.637.083.883.248c.248.165.438.405.572.719.133.313.199.693.198 1.139 0 .449-.067.833-.2 1.151-.132.318-.321.562-.568.729s-.542.252-.885.252zm0-.717c.234 0 .422-.118.562-.354s.209-.59.208-1.061c0-.311-.032-.569-.096-.776-.063-.206-.152-.362-.268-.466a.581.581 0 0 0-.398-.156h-.009c-.233 0-.42.117-.56.35s-.211.582-.212 1.047c0 .314.031.577.094.787.064.209.154.366.27.472a.588.588 0 0 0 .4.156h.008zm6.274-2.057-.198.438h-2.672l.162-.438h2.708zm-.381.838-.218.448h-2.27l.162-.448h2.326zm.901-1.931-.32.683a2.739 2.739 0 0 0-.181-.115l-.013-.007a1.138 1.138 0 0 0-.25-.112l-.008-.002a.998.998 0 0 0-.307-.048h-.013.001c-.185 0-.347.047-.484.14s-.244.238-.32.436c-.075.197-.112.45-.112.759 0 .312.037.566.112.761a.884.884 0 0 0 .32.43.853.853 0 0 0 .484.136c.117 0 .224-.015.32-.046s.18-.067.258-.113l-.006.003c.073-.043.134-.082.184-.118l.324.683c-.14.116-.304.209-.483.269l-.011.003c-.172.057-.369.09-.574.09h-.012.001c-.349 0-.658-.083-.927-.248a1.697 1.697 0 0 1-.63-.718c-.152-.313-.228-.691-.228-1.133 0-.441.076-.819.228-1.133s.362-.555.63-.722c.269-.168.578-.252.927-.252.215 0 .413.032.596.096s.348.156.496.276z"/></symbol></defs></svg>