<svg width="193" height="43" fill="none" xmlns="http://www.w3.org/2000/svg"><path fill="#262C27" d="M0 0h193v42.46H0z"/><path d="M77.04 28c-.293 0-.54-.1-.74-.3-.2-.2-.3-.447-.3-.74V13.42c0-.307.1-.553.3-.74.2-.2.447-.3.74-.3h4.78c.907 0 1.7.18 2.38.54a3.913 3.913 0 0 1 1.62 1.46c.4.627.6 1.347.6 2.16 0 .653-.18 1.247-.54 1.78-.347.52-.827.933-1.44 1.24.88.213 1.587.633 2.12 1.26.533.627.8 1.447.8 2.46 0 .92-.22 1.733-.66 2.44-.427.707-1.027 1.267-1.8 1.68-.773.4-1.66.6-2.66.6h-5.2Zm1.04-1.92h4.16c.613 0 1.153-.107 1.62-.32a2.527 2.527 0 0 0 1.1-.94c.267-.413.4-.927.4-1.54 0-.573-.133-1.047-.4-1.42a2.417 2.417 0 0 0-1.1-.84c-.467-.2-1.007-.3-1.62-.3h-4.16v5.36Zm0-7.28h3.74c.76 0 1.38-.187 1.86-.56.493-.373.74-.94.74-1.7s-.247-1.32-.74-1.68c-.48-.373-1.1-.56-1.86-.56h-3.74v4.5Zm18.913 9.52c-1.28 0-2.413-.233-3.4-.7-.987-.48-1.76-1.14-2.32-1.98-.546-.84-.82-1.8-.82-2.88v-9.34c0-.307.1-.553.3-.74.2-.2.447-.3.74-.3.307 0 .553.1.74.3.2.187.3.433.3.74v9.34c0 .72.187 1.36.56 1.92.387.547.913.98 1.58 1.3.68.307 1.453.46 2.32.46.84 0 1.58-.153 2.22-.46.654-.32 1.16-.753 1.52-1.3.373-.56.56-1.2.56-1.92v-9.34c0-.307.1-.553.3-.74.2-.2.447-.3.74-.3.307 0 .553.1.74.3.187.187.28.433.28.74v9.34c0 1.08-.273 2.04-.82 2.88-.533.84-1.28 1.5-2.24 1.98-.96.467-2.06.7-3.3.7Zm15.035-.32c-.28 0-.52-.1-.72-.3-.2-.2-.3-.447-.3-.74V22.3l-5.34-8.3c-.174-.28-.24-.54-.2-.78a.912.912 0 0 1 .34-.6c.2-.16.426-.24.68-.24.226 0 .406.053.54.16.133.093.26.233.38.42l5.08 8.06h-.8l5.16-8.14c.106-.16.233-.28.38-.36a.983.983 0 0 1 .54-.14c.24 0 .44.087.6.26.16.16.253.367.28.62.026.24-.04.487-.2.74l-5.38 8.3v4.66c0 .293-.1.54-.3.74-.2.2-.447.3-.74.3Z" fill="#fff"/></svg>