<svg width="158" height="36" fill="none" xmlns="http://www.w3.org/2000/svg"><mask id="a" style="mask-type:alpha" maskUnits="userSpaceOnUse" x="0" y="0" width="158" height="36"><path d="M0 .946h158v34.362H0V.946Z" fill="#fff"/></mask><g mask="url(#a)"><path fill-rule="evenodd" clip-rule="evenodd" d="M4.767 24.107 28.005 1.929v7.45c0 .43-.179.844-.498 1.149L9.023 28.168l-4.256-4.061Zm7.11 6.785L28.005 15.5v7.45c0 .43-.179.844-.498 1.149l-7.119 6.793 1.401 1.338 4.256 4.06h-8.511l-1.401-1.336-4.256-4.062Zm146.759-6.822 4.131 2.802a10.652 10.652 0 0 1-8.366 4.017c-5.856 0-10.602-4.664-10.602-10.416 0-5.753 4.746-10.417 10.602-10.417 3.4 0 6.426 1.573 8.366 4.018l-4.131 2.801a5.515 5.515 0 0 0-4.235-1.989c-3.055 0-5.541 2.506-5.541 5.587 0 3.08 2.486 5.586 5.541 5.586a5.515 5.515 0 0 0 4.235-1.989ZM46.629 18.494h8.548l-1.633 4.583H46.63v7.812H41.64V10.057h16.543L56.55 14.64h-9.92v3.854Zm70.586-8.438h16.216v4.584h-5.613v16.249h-4.99v-16.25h-5.613v-4.582Zm18.371 20.833h5.106V10.057h-5.106v20.832Zm-29.946-7.83 2.526-7.556 2.526 7.555h-5.052Zm-.655-13.003L97.564 30.89h5.457l1.082-3.248h8.126l1.082 3.248h5.458l-7.422-20.832h-6.362Zm-14.406 0h4.99V30.89h-3.743l-8.42-11.31v11.31h-4.989V10.057h3.742l8.42 11.308V10.057ZM63.293 23.059l2.526-7.555 2.526 7.555h-5.052Zm-.654-13.002L55.217 30.89h5.457l1.083-3.248h8.125l1.083 3.248h5.457L69 10.057H62.64Z" fill="#262C27"/></g></svg>